<?xml version="1.0" encoding="UTF-8"?>
<svg xmlns="http://www.w3.org/2000/svg" xmlns:xlink="http://www.w3.org/1999/xlink" viewBox="0 0 50 50" width="50px" height="50px">
<g id="surface60656280">
<path style=" stroke:none;fill-rule:nonzero;fill:rgb(80.000001%,21.176471%,21.176471%);fill-opacity:1;" d="M 40.976562 7 C 42.636719 7.042969 43.828125 7.46875 44.613281 8.300781 C 45.632812 9.382812 46.097656 11.273438 46 13.902344 C 45.796875 18.144531 42.597656 24.378906 36.976562 31.480469 C 29.804688 40.886719 25.25 42.863281 22.691406 42.863281 C 21.007812 42.863281 19.277344 40.722656 17.8125 36.839844 C 17.214844 34.589844 16.582031 32.3125 15.96875 30.109375 C 15.351562 27.886719 14.714844 25.585938 14.105469 23.289062 C 12.851562 18.90625 11.121094 14.429688 7.800781 14.429688 C 7.539062 14.429688 7.046875 14.429688 5.8125 15.066406 C 5.953125 14.953125 6.09375 14.84375 6.234375 14.730469 C 7.425781 13.789062 8.65625 12.8125 9.878906 11.703125 C 11.546875 10.257812 14.070312 8.070312 15.183594 7.992188 C 15.3125 7.980469 15.441406 7.972656 15.566406 7.972656 C 18.609375 7.972656 19.617188 11.722656 19.949219 13.96875 C 20.800781 19.445312 21.546875 22.464844 21.90625 23.914062 L 21.945312 24.070312 C 22.800781 28.089844 23.898438 32 27 32 C 28.203125 32 30.625 31.386719 33.359375 27.238281 C 35.746094 23.484375 36.292969 20.433594 36.402344 18.917969 C 36.550781 17.660156 36.605469 15.871094 35.476562 14.59375 C 34.382812 13.355469 32.78125 13.214844 31.671875 13.214844 C 31.597656 13.214844 31.523438 13.214844 31.453125 13.21875 C 33.546875 8.847656 36.472656 7 40.976562 7 M 40.976562 5 C 34.203125 5 30.464844 8.804688 28.167969 16.210938 C 29.371094 15.765625 30.578125 15.214844 31.671875 15.214844 C 33.972656 15.214844 34.738281 16.070312 34.410156 18.726562 C 34.300781 20.386719 33.644531 23.066406 31.671875 26.164062 C 29.699219 29.152344 27.984375 30 27 30 C 25.796875 30 24.882812 28.269531 23.898438 23.621094 C 23.570312 22.292969 22.804688 19.304688 21.925781 13.664062 C 21.203125 8.742188 18.878906 5.972656 15.570312 5.972656 C 15.382812 5.972656 15.191406 5.980469 15 6 C 13.46875 6.109375 11.636719 7.535156 8.570312 10.191406 C 6.378906 12.183594 4.300781 13.621094 2 15.613281 L 4.191406 18.421875 C 6.269531 16.984375 7.476562 16.429688 7.804688 16.429688 C 9.335938 16.429688 10.757812 18.863281 12.183594 23.84375 C 13.386719 28.378906 14.699219 32.914062 15.90625 37.449219 C 17.765625 42.429688 20.066406 44.863281 22.691406 44.863281 C 27.074219 44.863281 32.328125 40.882812 38.570312 32.695312 C 44.699219 24.949219 47.78125 18.535156 48 14 C 48.21875 8.027344 45.816406 5.109375 41 5 C 40.992188 5 40.984375 5 40.976562 5 Z M 40.976562 5 "/>
</g>
</svg>
